<?xml version="1.0" encoding="UTF-8" standalone="no"?><!-- Generator: Gravit.io --><svg xmlns="http://www.w3.org/2000/svg" xmlns:xlink="http://www.w3.org/1999/xlink" style="isolation:isolate" viewBox="41.154 341.974 39.545 35.154" width="39.545pt" height="35.154pt"><path d=" M 73.01 341.974 L 48.843 341.974 C 48.568 341.974 48.307 342.112 48.156 342.345 L 41.29 352.451 C 41.091 352.753 41.112 353.152 41.339 353.426 L 60.288 376.825 C 60.618 377.23 61.235 377.23 61.565 376.825 L 80.514 353.426 C 80.741 353.145 80.762 352.753 80.562 352.451 L 73.704 342.345 C 73.546 342.112 73.292 341.974 73.01 341.974 Z  M 71.685 345.27 L 76.031 351.861 L 71.335 351.861 L 67.785 345.27 L 71.685 345.27 L 71.685 345.27 Z  M 57.809 345.27 L 64.037 345.27 L 67.586 351.861 L 54.267 351.861 L 57.809 345.27 Z  M 50.168 345.27 L 54.068 345.27 L 50.518 351.861 L 45.822 351.861 L 50.168 345.27 Z  M 47.216 355.156 L 50.745 355.156 L 55.434 366.142 L 47.216 355.156 L 47.216 355.156 Z  M 54.28 355.156 L 67.573 355.156 L 60.926 371.861 L 54.28 355.156 L 54.28 355.156 Z  M 66.419 366.142 L 71.101 355.156 L 74.63 355.156 L 66.419 366.142 Z " fill="rgb(255,255,255)"/></svg>