<?xml version="1.0" encoding="UTF-8" standalone="no"?><!-- Generator: Gravit.io --><svg xmlns="http://www.w3.org/2000/svg" xmlns:xlink="http://www.w3.org/1999/xlink" style="isolation:isolate" viewBox="723 571 35 35" width="35pt" height="35pt"><g><mask id="_mask_gggvyuWbqfCqFGTo79tzjgQ3LQeXQe2J" x="-200%" y="-200%" width="400%" height="400%"><rect x="-200%" y="-200%" width="400%" height="400%" style="fill:white;"/><line x1="739.25" y1="585.609" x2="744.25" y2="585.609" fill="black" stroke="none"/></mask><line x1="739.25" y1="585.609" x2="744.25" y2="585.609" mask="url(#_mask_gggvyuWbqfCqFGTo79tzjgQ3LQeXQe2J)" vector-effect="non-scaling-stroke" stroke-width="1" stroke="rgb(255,255,255)" stroke-linejoin="round" stroke-linecap="round" stroke-miterlimit="4"/><mask id="_mask_VAkOW36iCNJPWsfPaovmKlC4w1JIrAWe" x="-200%" y="-200%" width="400%" height="400%"><rect x="-200%" y="-200%" width="400%" height="400%" style="fill:white;"/><line x1="739.25" y1="588.422" x2="744.25" y2="588.422" fill="black" stroke="none"/></mask><line x1="739.25" y1="588.422" x2="744.25" y2="588.422" mask="url(#_mask_VAkOW36iCNJPWsfPaovmKlC4w1JIrAWe)" vector-effect="non-scaling-stroke" stroke-width="1" stroke="rgb(255,255,255)" stroke-linejoin="round" stroke-linecap="round" stroke-miterlimit="4"/><mask id="_mask_B2VofCXAUfedoGWoXeQc4wzpIsVYUfBs" x="-200%" y="-200%" width="400%" height="400%"><rect x="-200%" y="-200%" width="400%" height="400%" style="fill:white;"/><line x1="739.25" y1="591.195" x2="744.25" y2="591.195" fill="black" stroke="none"/></mask><line x1="739.25" y1="591.195" x2="744.25" y2="591.195" mask="url(#_mask_B2VofCXAUfedoGWoXeQc4wzpIsVYUfBs)" vector-effect="non-scaling-stroke" stroke-width="1" stroke="rgb(255,255,255)" stroke-linejoin="round" stroke-linecap="round" stroke-miterlimit="4"/><mask id="_mask_8elVWo4wtjEW7J4aUvb2aj3yQzVHXfW7" x="-200%" y="-200%" width="400%" height="400%"><rect x="-200%" y="-200%" width="400%" height="400%" style="fill:white;"/><path d=" M 748 588.5 C 748 584.359 744.641 581 740.5 581 C 736.359 581 733 584.359 733 588.5 C 733 592.641 736.359 596 740.5 596 C 744.641 596 748 592.641 748 588.5 Z " fill="black" stroke="none"/></mask><path d=" M 748 588.5 C 748 584.359 744.641 581 740.5 581 C 736.359 581 733 584.359 733 588.5 C 733 592.641 736.359 596 740.5 596 C 744.641 596 748 592.641 748 588.5 Z " fill="none" mask="url(#_mask_8elVWo4wtjEW7J4aUvb2aj3yQzVHXfW7)" vector-effect="non-scaling-stroke" stroke-width="2" stroke="rgb(255,255,255)" stroke-linejoin="miter" stroke-linecap="butt" stroke-miterlimit="10"/><path d=" M 748 588.5 C 748 584.359 744.641 581 740.5 581 C 736.359 581 733 584.359 733 588.5 C 733 592.641 736.359 596 740.5 596 C 744.641 596 748 592.641 748 588.5 Z " fill="none"/><circle vector-effect="non-scaling-stroke" cx="737.0624999999997" cy="585.6093749999998" r="0.3125" fill="none" stroke-width="1" stroke="rgb(255,255,255)" stroke-linejoin="round" stroke-linecap="round" stroke-miterlimit="4"/><circle vector-effect="non-scaling-stroke" cx="737.0624999999997" cy="588.4609374999998" r="0.3125" fill="none" stroke-width="1" stroke="rgb(255,255,255)" stroke-linejoin="round" stroke-linecap="round" stroke-miterlimit="4"/><circle vector-effect="non-scaling-stroke" cx="737.0624999999997" cy="591.2343749999998" r="0.3125" fill="none" stroke-width="1" stroke="rgb(255,255,255)" stroke-linejoin="round" stroke-linecap="round" stroke-miterlimit="4"/></g></svg>