<?xml version="1.0" encoding="UTF-8" standalone="no"?><!-- Generator: Gravit.io --><svg xmlns="http://www.w3.org/2000/svg" xmlns:xlink="http://www.w3.org/1999/xlink" style="isolation:isolate" viewBox="61 14.5 902 667" width="902pt" height="667pt"><g><g><path d="M 81.825 86.5 L 942.175 86.5 C 953.669 86.5 963 95.831 963 107.325 L 963 660.675 C 963 672.169 953.669 681.5 942.175 681.5 L 81.825 681.5 C 70.331 681.5 61 672.169 61 660.675 L 61 107.325 C 61 95.831 70.331 86.5 81.825 86.5 Z" style="stroke:none;fill:#000000;stroke-miterlimit:10;"/><linearGradient id="_lgradient_0" x1="0" y1="0.5" x2="1.0990767720549857" y2="0.025499469163208166" gradientTransform="matrix(295.985,0,0,397.5,61,86.5)" gradientUnits="userSpaceOnUse"><stop offset="0%" stop-opacity="1" style="stop-color:rgb(74,134,232)"/><stop offset="100%" stop-opacity="1" style="stop-color:rgb(0,255,255)"/></linearGradient><path d=" M 356.985 86.5 Q 219.773 167.251 217 240 Q 211.533 383.425 61 484 L 61 103.623 C 61 94.173 68.673 86.5 78.123 86.5 L 356.985 86.5 Z " fill="url(#_lgradient_0)"/><linearGradient id="_lgradient_1" x1="0" y1="0.5" x2="1.0990767720549857" y2="0.025499469163208166" gradientTransform="matrix(-231,0,0,-311.5,963,681.5)" gradientUnits="userSpaceOnUse"><stop offset="0%" stop-opacity="1" style="stop-color:rgb(74,134,232)"/><stop offset="100%" stop-opacity="1" style="stop-color:rgb(0,255,255)"/></linearGradient><path d=" M 732 681.5 Q 823.211 616.009 825.375 559 Q 829.642 446.605 963 370 L 963 668.109 C 963 675.5 957 681.5 949.609 681.5 L 732 681.5 Z " fill="url(#_lgradient_1)"/><path d=" M 504.75 137.793 L 513.856 163.574 L 522.963 137.793 L 532.558 137.793 L 532.558 173.34 L 525.209 173.34 L 525.209 163.623 L 525.941 146.924 L 516.371 173.34 L 511.342 173.34 L 501.771 146.924 L 502.504 163.623 L 502.504 173.34 L 495.155 173.34 L 495.155 137.793 L 504.75 137.793 L 504.75 137.793 Z  M 561.171 173.34 L 554.53 173.34 L 554.335 170.63 L 554.335 170.63 Q 551.747 173.828 547.108 173.828 L 547.108 173.828 L 547.108 173.828 Q 543.227 173.828 540.797 171.558 L 540.797 171.558 L 540.797 171.558 Q 538.368 169.287 538.344 164.111 L 538.344 164.111 L 538.344 146.924 L 545.399 146.924 L 545.399 164.063 L 545.399 164.063 Q 545.399 166.26 546.449 167.175 L 546.449 167.175 L 546.449 167.175 Q 547.499 168.091 549.135 168.091 L 549.135 168.091 L 549.135 168.091 Q 552.724 168.091 554.091 165.576 L 554.091 165.576 L 554.091 146.924 L 561.171 146.924 L 561.171 173.34 L 561.171 173.34 Z  M 580.8 166.016 L 580.8 166.016 L 580.8 166.016 Q 580.8 164.893 579.762 164.124 L 579.762 164.124 L 579.762 164.124 Q 578.725 163.354 575.307 162.622 L 575.307 162.622 L 575.307 162.622 Q 571.229 161.743 568.617 159.888 L 568.617 159.888 L 568.617 159.888 Q 566.005 158.032 566.005 154.639 L 566.005 154.639 L 566.005 154.639 Q 566.005 151.343 568.8 148.889 L 568.8 148.889 L 568.8 148.889 Q 571.596 146.436 576.527 146.436 L 576.527 146.436 L 576.527 146.436 Q 581.679 146.436 584.633 148.853 L 584.633 148.853 L 584.633 148.853 Q 587.587 151.27 587.587 154.956 L 587.587 154.956 L 580.531 154.956 L 580.531 154.956 Q 580.531 153.442 579.555 152.441 L 579.555 152.441 L 579.555 152.441 Q 578.578 151.44 576.503 151.44 L 576.503 151.44 L 576.503 151.44 Q 574.745 151.44 573.756 152.258 L 573.756 152.258 L 573.756 152.258 Q 572.768 153.076 572.768 154.297 L 572.768 154.297 L 572.768 154.297 Q 572.768 155.42 573.817 156.152 L 573.817 156.152 L 573.817 156.152 Q 574.867 156.885 577.699 157.446 L 577.699 157.446 L 577.699 157.446 Q 581.996 158.301 584.828 160.059 L 584.828 160.059 L 584.828 160.059 Q 587.66 161.816 587.66 165.747 L 587.66 165.747 L 587.66 165.747 Q 587.66 169.238 584.657 171.533 L 584.657 171.533 L 584.657 171.533 Q 581.654 173.828 576.552 173.828 L 576.552 173.828 L 576.552 173.828 Q 571.01 173.828 568.08 170.984 L 568.08 170.984 L 568.08 170.984 Q 565.15 168.14 565.15 164.917 L 565.15 164.917 L 571.864 164.917 L 571.864 164.917 Q 571.962 166.992 573.39 167.896 L 573.39 167.896 L 573.39 167.896 Q 574.818 168.799 576.698 168.799 L 576.698 168.799 L 576.698 168.799 Q 580.8 168.799 580.8 166.016 Z  M 592.177 140.088 L 592.177 140.088 L 592.177 140.088 Q 592.177 138.501 593.251 137.463 L 593.251 137.463 L 593.251 137.463 Q 594.325 136.426 596.132 136.426 L 596.132 136.426 L 596.132 136.426 Q 597.938 136.426 599.013 137.463 L 599.013 137.463 L 599.013 137.463 Q 600.087 138.501 600.087 140.088 L 600.087 140.088 L 600.087 140.088 Q 600.087 141.65 599.013 142.688 L 599.013 142.688 L 599.013 142.688 Q 597.938 143.726 596.132 143.726 L 596.132 143.726 L 596.132 143.726 Q 594.325 143.726 593.251 142.688 L 593.251 142.688 L 593.251 142.688 Q 592.177 141.65 592.177 140.088 Z  M 592.616 146.924 L 599.696 146.924 L 599.696 173.34 L 592.616 173.34 L 592.616 146.924 L 592.616 146.924 Z  M 616.469 168.14 L 616.469 168.14 L 616.469 168.14 Q 618.397 168.14 619.643 167.078 L 619.643 167.078 L 619.643 167.078 Q 620.888 166.016 620.912 164.209 L 620.912 164.209 L 627.553 164.209 L 627.553 164.209 Q 627.504 168.408 624.342 171.118 L 624.342 171.118 L 624.342 171.118 Q 621.181 173.828 616.591 173.828 L 616.591 173.828 L 616.591 173.828 Q 610.463 173.828 607.423 169.958 L 607.423 169.958 L 607.423 169.958 Q 604.384 166.089 604.384 160.474 L 604.384 160.474 L 604.384 159.79 L 604.384 159.79 Q 604.384 154.199 607.411 150.317 L 607.411 150.317 L 607.411 150.317 Q 610.438 146.436 616.566 146.436 L 616.566 146.436 L 616.566 146.436 Q 621.425 146.436 624.464 149.219 L 624.464 149.219 L 624.464 149.219 Q 627.504 152.002 627.553 156.763 L 627.553 156.763 L 620.912 156.763 L 620.912 156.763 Q 620.888 154.834 619.74 153.479 L 619.74 153.479 L 619.74 153.479 Q 618.593 152.124 616.444 152.124 L 616.444 152.124 L 616.444 152.124 Q 613.368 152.124 612.416 154.431 L 612.416 154.431 L 612.416 154.431 Q 611.464 156.738 611.464 160.474 L 611.464 160.474 L 611.464 160.474 Q 611.464 163.525 612.404 165.833 L 612.404 165.833 L 612.404 165.833 Q 613.344 168.14 616.469 168.14 Z  M 403.651 173.34 L 396.303 173.34 L 396.303 137.793 L 419.472 137.793 L 419.472 143.726 L 403.651 143.726 L 403.651 152.905 L 417.714 152.905 L 417.714 158.813 L 403.651 158.813 L 403.651 173.34 L 403.651 173.34 Z  M 431.068 167.432 L 446.596 167.432 L 446.596 173.34 L 423.72 173.34 L 423.72 137.793 L 431.068 137.793 L 431.068 167.432 L 431.068 167.432 Z  M 477.211 162.866 L 477.211 162.866 L 477.211 162.866 Q 477.211 167.993 473.939 170.642 L 473.939 170.642 L 473.939 170.642 Q 470.668 173.291 464.613 173.34 L 464.613 173.34 L 450.795 173.34 L 450.795 137.793 L 463.271 137.793 L 463.271 137.793 Q 469.447 137.793 472.938 140.161 L 472.938 140.161 L 472.938 140.161 Q 476.43 142.529 476.43 147.51 L 476.43 147.51 L 476.43 147.51 Q 476.43 149.927 475.209 151.953 L 475.209 151.953 L 475.209 151.953 Q 473.988 153.979 471.352 155.029 L 471.352 155.029 L 471.352 155.029 Q 474.477 155.811 475.844 158.057 L 475.844 158.057 L 475.844 158.057 Q 477.211 160.303 477.211 162.866 Z  M 463.515 143.726 L 458.144 143.726 L 458.144 152.661 L 463.271 152.661 L 463.271 152.661 Q 469.081 152.661 469.081 148.267 L 469.081 148.267 L 469.081 148.267 Q 469.081 143.823 463.515 143.726 L 463.515 143.726 L 463.515 143.726 Z  M 469.887 162.793 L 469.887 162.793 L 469.887 162.793 Q 469.887 158.008 465.053 157.837 L 465.053 157.837 L 458.144 157.837 L 458.144 167.432 L 464.394 167.432 L 464.394 167.432 Q 467.201 167.432 468.544 166.113 L 468.544 166.113 L 468.544 166.113 Q 469.887 164.795 469.887 162.793 Z " fill="rgb(255,255,255)"/><defs><filter id="V3eh8A7MbhsRS35g3BsJebpjLALicXk7" x="-200%" y="-200%" width="400%" height="400%" filterUnits="objectBoundingBox" color-interpolation-filters="sRGB"><feGaussianBlur xmlns="http://www.w3.org/2000/svg" in="SourceGraphic" stdDeviation="4.293609062839028"/><feOffset xmlns="http://www.w3.org/2000/svg" dx="0" dy="4" result="pf_100_offsetBlur"/><feFlood xmlns="http://www.w3.org/2000/svg" flood-color="#0062FF" flood-opacity="0.65"/><feComposite xmlns="http://www.w3.org/2000/svg" in2="pf_100_offsetBlur" operator="in" result="pf_100_dropShadow"/><feBlend xmlns="http://www.w3.org/2000/svg" in="SourceGraphic" in2="pf_100_dropShadow" mode="normal"/></filter></defs><g filter="url(#V3eh8A7MbhsRS35g3BsJebpjLALicXk7)"><path d=" M 884.375 23.5 L 810.625 23.5 C 802.513 23.5 795.875 30.138 795.875 38.25 L 795.875 156.25 C 795.875 164.363 802.513 170.926 810.625 170.926 L 884.375 171 C 892.488 171 899.125 164.363 899.125 156.25 L 899.125 38.25 C 899.125 30.138 892.488 23.5 884.375 23.5 Z  M 847.5 38.25 C 855.613 38.25 862.25 44.888 862.25 53 C 862.25 61.112 855.613 67.75 847.5 67.75 C 839.314 67.75 832.75 61.112 832.75 53 C 832.75 44.888 839.314 38.25 847.5 38.25 Z  M 847.5 156.25 C 827.145 156.25 810.625 139.73 810.625 119.375 C 810.625 99.02 827.145 82.5 847.5 82.5 C 867.855 82.5 884.375 99.02 884.375 119.375 C 884.375 139.73 867.855 156.25 847.5 156.25 Z  M 847.5 97.25 C 835.258 97.25 825.375 107.133 825.375 119.375 C 825.375 131.617 835.258 141.5 847.5 141.5 C 859.742 141.5 869.625 131.617 869.625 119.375 C 869.625 107.133 859.742 97.25 847.5 97.25 Z " fill="rgb(0,0,0)"/><clipPath id="_clipPath_SPukTSI0VeSH1rUdoNaBLmuIc76hmjb6"><path d=" M 884.375 23.5 L 810.625 23.5 C 802.513 23.5 795.875 30.138 795.875 38.25 L 795.875 156.25 C 795.875 164.363 802.513 170.926 810.625 170.926 L 884.375 171 C 892.488 171 899.125 164.363 899.125 156.25 L 899.125 38.25 C 899.125 30.138 892.488 23.5 884.375 23.5 Z  M 847.5 38.25 C 855.613 38.25 862.25 44.888 862.25 53 C 862.25 61.112 855.613 67.75 847.5 67.75 C 839.314 67.75 832.75 61.112 832.75 53 C 832.75 44.888 839.314 38.25 847.5 38.25 Z  M 847.5 156.25 C 827.145 156.25 810.625 139.73 810.625 119.375 C 810.625 99.02 827.145 82.5 847.5 82.5 C 867.855 82.5 884.375 99.02 884.375 119.375 C 884.375 139.73 867.855 156.25 847.5 156.25 Z  M 847.5 97.25 C 835.258 97.25 825.375 107.133 825.375 119.375 C 825.375 131.617 835.258 141.5 847.5 141.5 C 859.742 141.5 869.625 131.617 869.625 119.375 C 869.625 107.133 859.742 97.25 847.5 97.25 Z " fill="rgb(0,0,0)"/></clipPath><g clip-path="url(#_clipPath_SPukTSI0VeSH1rUdoNaBLmuIc76hmjb6)"><g><rect x="795.875" y="23.5" width="143.259" height="147.5" transform="matrix(1,0,0,1,0,0)" fill="rgb(126,176,255)"/><path d="M 795.875 23.5 L 795.875 23.5 C 874.942 23.5 939.134 88.636 939.134 168.864 L 939.134 171 L 795.875 171 L 795.875 23.5 Z" style="stroke:none;fill:#66A1FF;stroke-miterlimit:10;"/><path d="M 795.875 57.37 L 795.875 57.37 C 856.786 57.37 906.238 107.549 906.238 169.355 L 906.238 171 L 795.875 171 L 795.875 57.37 Z" style="stroke:none;fill:#4D91FF;stroke-miterlimit:10;"/><path d="M 795.875 84.684 L 795.875 84.684 C 842.145 84.684 879.71 122.801 879.71 169.75 L 879.71 171 L 795.875 171 L 795.875 84.684 Z" style="stroke:none;fill:#3381FF;stroke-miterlimit:10;"/><path d="M 795.875 113.093 L 795.875 113.093 C 826.916 113.093 852.118 138.664 852.118 170.162 L 852.118 171 L 795.875 171 L 795.875 113.093 Z" style="stroke:none;fill:#1A72FF;stroke-miterlimit:10;"/></g></g></g></g><g><path d=" M 371.192 267.676 L 368.38 267.676 L 368.38 257.817 L 357.628 257.817 L 357.628 267.676 L 354.801 267.676 L 354.801 246.348 L 357.628 246.348 L 357.628 255.518 L 368.38 255.518 L 368.38 246.348 L 371.192 246.348 L 371.192 267.676 L 371.192 267.676 Z  M 387.555 251.826 L 381.197 270.122 L 381.197 270.122 Q 379.791 273.843 376.949 274.063 L 376.949 274.063 L 376.495 274.077 L 376.495 274.077 Q 375.631 274.077 374.972 273.843 L 374.972 273.843 L 374.957 271.646 L 375.689 271.704 L 375.689 271.704 Q 377.066 271.704 377.843 271.14 L 377.843 271.14 L 377.843 271.14 Q 378.619 270.576 379.117 269.111 L 379.117 269.111 L 379.703 267.5 L 374.049 251.826 L 377.008 251.826 L 380.978 263.691 L 384.654 251.826 L 387.555 251.826 L 387.555 251.826 Z  M 397.223 267.969 L 397.223 267.969 L 397.223 267.969 Q 394.366 267.969 392.696 266.138 L 392.696 266.138 L 392.696 273.77 L 389.972 273.77 L 389.972 251.826 L 392.462 251.826 L 392.594 253.569 L 392.594 253.569 Q 394.264 251.533 397.179 251.533 L 397.179 251.533 L 397.179 251.533 Q 400.182 251.533 401.778 253.76 L 401.778 253.76 L 401.778 253.76 Q 403.375 255.986 403.375 259.619 L 403.375 259.619 L 403.375 259.927 L 403.375 259.927 Q 403.375 263.398 401.771 265.684 L 401.771 265.684 L 401.771 265.684 Q 400.167 267.969 397.223 267.969 Z  M 396.388 253.818 L 396.388 253.818 L 396.388 253.818 Q 393.927 253.818 392.696 256.001 L 392.696 256.001 L 392.696 263.589 L 392.696 263.589 Q 393.941 265.742 396.417 265.742 L 396.417 265.742 L 396.417 265.742 Q 398.614 265.742 399.632 264.014 L 399.632 264.014 L 399.632 264.014 Q 400.65 262.285 400.65 259.927 L 400.65 259.927 L 400.65 259.619 L 400.65 259.619 Q 400.65 257.261 399.632 255.54 L 399.632 255.54 L 399.632 255.54 Q 398.614 253.818 396.388 253.818 Z  M 417.73 263.604 L 419.371 264.907 L 419.371 264.907 Q 418.595 266.079 417.174 267.024 L 417.174 267.024 L 417.174 267.024 Q 415.753 267.969 413.409 267.969 L 413.409 267.969 L 413.409 267.969 Q 410.099 267.969 408.114 265.815 L 408.114 265.815 L 408.114 265.815 Q 406.129 263.662 406.129 260.308 L 406.129 260.308 L 406.129 259.692 L 406.129 259.692 Q 406.129 257.1 407.118 255.276 L 407.118 255.276 L 407.118 255.276 Q 408.106 253.452 409.688 252.493 L 409.688 252.493 L 409.688 252.493 Q 411.271 251.533 413.058 251.533 L 413.058 251.533 L 413.058 251.533 Q 416.456 251.533 418.016 253.752 L 418.016 253.752 L 418.016 253.752 Q 419.576 255.972 419.576 259.297 L 419.576 259.297 L 419.576 260.513 L 408.854 260.513 L 408.854 260.513 Q 408.912 262.695 410.15 264.226 L 410.15 264.226 L 410.15 264.226 Q 411.388 265.757 413.556 265.757 L 413.556 265.757 L 413.556 265.757 Q 414.991 265.757 415.987 265.171 L 415.987 265.171 L 415.987 265.171 Q 416.983 264.585 417.73 263.604 L 417.73 263.604 L 417.73 263.604 Z  M 413.058 253.76 L 413.058 253.76 L 413.058 253.76 Q 411.446 253.76 410.333 254.932 L 410.333 254.932 L 410.333 254.932 Q 409.22 256.104 408.941 258.301 L 408.941 258.301 L 416.866 258.301 L 416.866 258.096 L 416.866 258.096 Q 416.764 256.514 415.951 255.137 L 415.951 255.137 L 415.951 255.137 Q 415.138 253.76 413.058 253.76 Z " fill="rgb(255,255,255)"/><circle vector-effect="non-scaling-stroke" cx="330.49999999999983" cy="257.49999999999994" r="6.5" fill="rgb(235,235,235)"/></g><g><path d=" M 510.884 260.894 L 510.884 260.894 L 513.697 260.894 L 513.697 260.894 Q 513.375 263.926 511.412 265.947 L 511.412 265.947 L 511.412 265.947 Q 509.449 267.969 505.611 267.969 L 505.611 267.969 L 505.611 267.969 Q 501.89 267.969 499.612 265.31 L 499.612 265.31 L 499.612 265.31 Q 497.334 262.651 497.291 258.242 L 497.291 258.242 L 497.291 255.957 L 497.291 255.957 Q 497.291 251.475 499.598 248.765 L 499.598 248.765 L 499.598 248.765 Q 501.905 246.055 505.86 246.055 L 505.86 246.055 L 505.86 246.055 Q 509.478 246.055 511.426 248.047 L 511.426 248.047 L 511.426 248.047 Q 513.375 250.039 513.697 253.188 L 513.697 253.188 L 510.884 253.188 L 510.884 253.188 Q 510.562 250.962 509.449 249.666 L 509.449 249.666 L 509.449 249.666 Q 508.335 248.369 505.86 248.369 L 505.86 248.369 L 505.86 248.369 Q 503.033 248.369 501.568 250.449 L 501.568 250.449 L 501.568 250.449 Q 500.103 252.529 500.103 255.928 L 500.103 255.928 L 500.103 258.081 L 500.103 258.081 Q 500.103 261.23 501.436 263.45 L 501.436 263.45 L 501.436 263.45 Q 502.769 265.669 505.611 265.669 L 505.611 265.669 L 505.611 265.669 Q 508.306 265.669 509.412 264.409 L 509.412 264.409 L 509.412 264.409 Q 510.518 263.149 510.884 260.894 Z  M 523.702 253.818 L 523.702 253.818 L 523.702 253.818 Q 522.398 253.818 521.402 254.521 L 521.402 254.521 L 521.402 254.521 Q 520.406 255.225 519.834 256.353 L 519.834 256.353 L 519.834 267.676 L 517.125 267.676 L 517.125 245.176 L 519.834 245.176 L 519.834 253.716 L 519.834 253.716 Q 521.636 251.533 524.507 251.533 L 524.507 251.533 L 524.507 251.533 Q 526.836 251.533 528.206 252.837 L 528.206 252.837 L 528.206 252.837 Q 529.576 254.141 529.59 257.217 L 529.59 257.217 L 529.59 267.676 L 526.866 267.676 L 526.866 257.261 L 526.866 257.261 Q 526.866 255.4 526.053 254.609 L 526.053 254.609 L 526.053 254.609 Q 525.24 253.818 523.702 253.818 Z  M 533.663 247.622 L 533.663 247.622 L 533.663 247.622 Q 533.663 246.963 534.065 246.509 L 534.065 246.509 L 534.065 246.509 Q 534.468 246.055 535.259 246.055 L 535.259 246.055 L 535.259 246.055 Q 536.036 246.055 536.453 246.509 L 536.453 246.509 L 536.453 246.509 Q 536.871 246.963 536.871 247.622 L 536.871 247.622 L 536.871 247.622 Q 536.871 248.252 536.453 248.699 L 536.453 248.699 L 536.453 248.699 Q 536.036 249.146 535.259 249.146 L 535.259 249.146 L 535.259 249.146 Q 534.468 249.146 534.065 248.699 L 534.065 248.699 L 534.065 248.699 Q 533.663 248.252 533.663 247.622 Z  M 533.868 251.826 L 536.592 251.826 L 536.592 267.676 L 533.868 267.676 L 533.868 251.826 L 533.868 251.826 Z  M 541.163 245.176 L 543.887 245.176 L 543.887 267.676 L 541.163 267.676 L 541.163 245.176 L 541.163 245.176 Z  M 548.458 245.176 L 551.182 245.176 L 551.182 267.676 L 548.458 267.676 L 548.458 245.176 L 548.458 245.176 Z " fill="rgb(255,255,255)"/><circle vector-effect="non-scaling-stroke" cx="479" cy="257.49999999999994" r="6.5" fill="rgb(235,235,235)"/></g><g><path d=" M 640.069 246.348 L 643.131 246.348 L 635.235 267.676 L 632.73 267.676 L 624.85 246.348 L 627.911 246.348 L 633.961 263.926 L 640.069 246.348 L 640.069 246.348 Z  M 645.606 247.622 L 645.606 247.622 L 645.606 247.622 Q 645.606 246.963 646.009 246.509 L 646.009 246.509 L 646.009 246.509 Q 646.412 246.055 647.203 246.055 L 647.203 246.055 L 647.203 246.055 Q 647.979 246.055 648.397 246.509 L 648.397 246.509 L 648.397 246.509 Q 648.814 246.963 648.814 247.622 L 648.814 247.622 L 648.814 247.622 Q 648.814 248.252 648.397 248.699 L 648.397 248.699 L 648.397 248.699 Q 647.979 249.146 647.203 249.146 L 647.203 249.146 L 647.203 249.146 Q 646.412 249.146 646.009 248.699 L 646.009 248.699 L 646.009 248.699 Q 645.606 248.252 645.606 247.622 Z  M 645.812 251.826 L 648.536 251.826 L 648.536 267.676 L 645.812 267.676 L 645.812 251.826 L 645.812 251.826 Z  M 666.305 259.619 L 666.305 259.927 L 666.305 259.927 Q 666.305 263.398 664.693 265.684 L 664.693 265.684 L 664.693 265.684 Q 663.082 267.969 660.138 267.969 L 660.138 267.969 L 660.138 267.969 Q 657.135 267.969 655.509 265.845 L 655.509 265.845 L 655.362 267.676 L 652.872 267.676 L 652.872 245.176 L 655.597 245.176 L 655.597 253.54 L 655.597 253.54 Q 657.208 251.533 660.108 251.533 L 660.108 251.533 L 660.108 251.533 Q 663.097 251.533 664.701 253.76 L 664.701 253.76 L 664.701 253.76 Q 666.305 255.986 666.305 259.619 L 666.305 259.619 L 666.305 259.619 Z  M 659.435 253.818 L 659.435 253.818 L 659.435 253.818 Q 657.955 253.818 657.032 254.529 L 657.032 254.529 L 657.032 254.529 Q 656.109 255.239 655.597 256.279 L 655.597 256.279 L 655.597 263.179 L 655.597 263.179 Q 656.124 264.233 657.062 264.951 L 657.062 264.951 L 657.062 264.951 Q 657.999 265.669 659.464 265.669 L 659.464 265.669 L 659.464 265.669 Q 661.661 265.669 662.621 263.977 L 662.621 263.977 L 662.621 263.977 Q 663.58 262.285 663.58 259.927 L 663.58 259.927 L 663.58 259.619 L 663.58 259.619 Q 663.58 257.261 662.665 255.54 L 662.665 255.54 L 662.665 255.54 Q 661.749 253.818 659.435 253.818 Z  M 680.631 263.604 L 682.271 264.907 L 682.271 264.907 Q 681.495 266.079 680.074 267.024 L 680.074 267.024 L 680.074 267.024 Q 678.653 267.969 676.31 267.969 L 676.31 267.969 L 676.31 267.969 Q 672.999 267.969 671.014 265.815 L 671.014 265.815 L 671.014 265.815 Q 669.029 263.662 669.029 260.308 L 669.029 260.308 L 669.029 259.692 L 669.029 259.692 Q 669.029 257.1 670.018 255.276 L 670.018 255.276 L 670.018 255.276 Q 671.007 253.452 672.589 252.493 L 672.589 252.493 L 672.589 252.493 Q 674.171 251.533 675.958 251.533 L 675.958 251.533 L 675.958 251.533 Q 679.356 251.533 680.917 253.752 L 680.917 253.752 L 680.917 253.752 Q 682.477 255.972 682.477 259.297 L 682.477 259.297 L 682.477 260.513 L 671.754 260.513 L 671.754 260.513 Q 671.813 262.695 673.05 264.226 L 673.05 264.226 L 673.05 264.226 Q 674.288 265.757 676.456 265.757 L 676.456 265.757 L 676.456 265.757 Q 677.892 265.757 678.888 265.171 L 678.888 265.171 L 678.888 265.171 Q 679.884 264.585 680.631 263.604 L 680.631 263.604 L 680.631 263.604 Z  M 675.958 253.76 L 675.958 253.76 L 675.958 253.76 Q 674.347 253.76 673.233 254.932 L 673.233 254.932 L 673.233 254.932 Q 672.12 256.104 671.842 258.301 L 671.842 258.301 L 679.767 258.301 L 679.767 258.096 L 679.767 258.096 Q 679.664 256.514 678.851 255.137 L 678.851 255.137 L 678.851 255.137 Q 678.038 253.76 675.958 253.76 Z " fill="rgb(255,255,255)"/><circle vector-effect="non-scaling-stroke" cx="611.5" cy="257.49999999999994" r="6.5" fill="rgb(235,235,235)"/></g></g></svg>