<?xml version="1.0" encoding="UTF-8" standalone="no"?><!-- Generator: Gravit.io --><svg xmlns="http://www.w3.org/2000/svg" xmlns:xlink="http://www.w3.org/1999/xlink" style="isolation:isolate" viewBox="735.286 498 18 16" width="18pt" height="16pt"><mask id="_mask_DM4HPor8SA49bVNBcMVhTVtoaftsEl8V" x="-200%" y="-200%" width="400%" height="400%"><rect x="-200%" y="-200%" width="400%" height="400%" style="fill:white;"/><path d=" M 744.952 513 L 744.952 509 C 740.102 509 738.311 510.407 736.286 513 C 736.286 508.032 737.934 503 744.952 503 L 744.952 499 L 752.286 506 L 744.952 513 Z " fill="black" stroke="none"/></mask><path d=" M 744.952 513 L 744.952 509 C 740.102 509 738.311 510.407 736.286 513 C 736.286 508.032 737.934 503 744.952 503 L 744.952 499 L 752.286 506 L 744.952 513 Z " fill="none" mask="url(#_mask_DM4HPor8SA49bVNBcMVhTVtoaftsEl8V)" vector-effect="non-scaling-stroke" stroke-width="2" stroke="rgb(255,255,255)" stroke-linejoin="round" stroke-linecap="butt" stroke-miterlimit="4"/><path d=" M 744.952 513 L 744.952 509 C 740.102 509 738.311 510.407 736.286 513 C 736.286 508.032 737.934 503 744.952 503 L 744.952 499 L 752.286 506 L 744.952 513 Z " fill="none"/></svg>