<?xml version="1.0" encoding="UTF-8" standalone="no"?><!-- Generator: Gravit.io --><svg xmlns="http://www.w3.org/2000/svg" xmlns:xlink="http://www.w3.org/1999/xlink" style="isolation:isolate" viewBox="657.364 113.272 330.04 344.491" width="330.04pt" height="344.491pt"><g><g><path d=" M 748 161.428 L 748 302.051 C 748 309.798 754.287 316.125 762.074 316.125 L 882.696 316.125 C 890.443 316.125 896.771 309.838 896.771 302.051 L 896.771 161.428 C 896.771 153.681 890.484 147.354 882.696 147.354 L 762.074 147.354 C 754.287 147.354 748 153.641 748 161.428 Z  M 770.22 281.933 C 764.907 282.622 760.445 278.161 761.135 272.847 C 761.581 269.237 764.501 266.317 768.111 265.871 C 773.424 265.181 777.886 269.643 777.197 274.956 C 776.75 278.566 773.83 281.487 770.22 281.933 Z  M 770.22 239.75 C 764.907 240.44 760.445 235.978 761.135 230.665 C 761.581 227.055 764.501 224.134 768.111 223.688 C 773.424 222.999 777.886 227.46 777.197 232.774 C 776.75 236.384 773.83 239.304 770.22 239.75 Z  M 770.22 197.568 C 764.907 198.257 760.445 193.795 761.135 188.482 C 761.581 184.872 764.501 181.952 768.111 181.506 C 773.424 180.816 777.886 185.278 777.197 190.591 C 776.75 194.201 773.83 197.121 770.22 197.568 Z  M 870.566 279.58 L 797.558 279.58 C 794.435 279.58 791.879 277.025 791.879 273.902 L 791.879 273.902 C 791.879 270.779 794.435 268.223 797.558 268.223 L 870.566 268.223 C 873.689 268.223 876.244 270.779 876.244 273.902 L 876.244 273.902 C 876.244 277.025 873.689 279.58 870.566 279.58 Z  M 870.566 237.398 L 797.558 237.398 C 794.435 237.398 791.879 234.842 791.879 231.719 L 791.879 231.719 C 791.879 228.596 794.435 226.041 797.558 226.041 L 870.566 226.041 C 873.689 226.041 876.244 228.596 876.244 231.719 L 876.244 231.719 C 876.244 234.842 873.689 237.398 870.566 237.398 Z  M 870.566 195.215 L 797.558 195.215 C 794.435 195.215 791.879 192.66 791.879 189.537 L 791.879 189.537 C 791.879 186.414 794.435 183.858 797.558 183.858 L 870.566 183.858 C 873.689 183.858 876.244 186.414 876.244 189.537 L 876.244 189.537 C 876.244 192.66 873.689 195.215 870.566 195.215 Z " fill="rgb(255,255,255)"/></g><path d=" M 739.122 190.202 L 727.199 197.086 L 715.276 203.97 C 712.588 205.522 710.406 204.262 710.406 201.158 L 710.406 187.391 L 710.406 173.623 C 710.406 170.52 712.588 169.26 715.276 170.812 L 727.199 177.695 L 739.122 184.579 C 741.81 186.131 741.81 188.651 739.122 190.202 Z " fill="rgb(0,102,255)"/><path d=" M 671.455 370.693 L 689.348 370.693 C 691.243 370.693 692.781 372.231 692.781 374.126 L 692.781 389.482 C 692.781 391.376 691.243 392.915 689.348 392.915 L 671.455 392.915 C 669.56 392.915 668.022 391.376 668.022 389.482 L 668.022 374.126 C 668.022 372.231 669.56 370.693 671.455 370.693 L 671.455 370.693 L 671.455 370.693 L 671.455 370.693 L 671.455 370.693 Z  M 700.41 370.955 L 792.422 370.955 C 793.902 370.955 795.103 372.029 795.103 373.352 L 795.103 373.352 C 795.103 374.675 793.902 375.749 792.422 375.749 L 700.41 375.749 C 698.93 375.749 697.729 374.675 697.729 373.352 L 697.729 373.352 C 697.729 372.029 698.93 370.955 700.41 370.955 L 700.41 370.955 L 700.41 370.955 Z  M 668.628 364.188 L 804.601 364.188 C 808.685 364.188 812 367.503 812 371.587 L 812 392.021 C 812 396.104 808.685 399.419 804.601 399.419 L 668.628 399.419 C 664.544 399.419 661.229 396.104 661.229 392.021 L 661.229 371.587 C 661.229 367.503 664.544 364.188 668.628 364.188 L 668.628 364.188 L 668.628 364.188 L 668.628 364.188 L 668.628 364.188 Z  M 700.305 385.179 L 755.644 385.179 C 756.944 385.179 758 386.234 758 387.535 L 758 388.823 C 758 390.123 756.944 391.179 755.644 391.179 L 700.305 391.179 C 699.005 391.179 697.949 390.123 697.949 388.823 L 697.949 387.535 C 697.949 386.234 699.005 385.179 700.305 385.179 Z " fill-rule="evenodd" fill="rgb(232,232,232)"/><path d=" M 897 272 L 924 272 C 931.727 272 938 278.273 938 286 L 938 327 L 938 367.558 C 938 375.285 931.727 381.558 924 381.558 L 812 381.558" fill="none" vector-effect="non-scaling-stroke" stroke-width="5" stroke="rgb(0,102,255)" stroke-linejoin="round" stroke-linecap="round" stroke-miterlimit="3"/><path d=" M 924 118 L 912 118 C 910.9 118 910 118.9 910 120 L 910 132 C 910 133.1 910.9 134 912 134 L 924 134 C 925.1 134 926 133.1 926 132 L 926 120 C 926 118.9 925.1 118 924 118 Z  M 922 123 L 919 123 L 919 128.5 C 919 129.88 917.88 131 916.5 131 C 915.12 131 914 129.88 914 128.5 C 914 127.12 915.12 126 916.5 126 C 917.07 126 917.58 126.19 918 126.51 L 918 121 L 922 121 L 922 123 Z  M 908 122 L 906 122 L 906 136 C 906 137.1 906.9 138 908 138 L 922 138 L 922 136 L 908 136 L 908 122 Z " fill="rgb(255,255,255)"/><path d=" M 695.154 283 L 678.385 283 C 676.847 283 675.59 284.258 675.59 285.795 L 675.59 302.564 C 675.59 304.101 676.847 305.359 678.385 305.359 L 695.154 305.359 C 696.691 305.359 697.949 304.101 697.949 302.564 L 697.949 285.795 C 697.949 284.258 696.691 283 695.154 283 Z  M 692.359 289.987 L 688.167 289.987 L 688.167 297.673 C 688.167 299.602 686.602 301.167 684.673 301.167 C 682.745 301.167 681.18 299.602 681.18 297.673 C 681.18 295.745 682.745 294.18 684.673 294.18 C 685.47 294.18 686.182 294.445 686.769 294.892 L 686.769 287.192 L 692.359 287.192 L 692.359 289.987 Z  M 672.795 288.59 L 670 288.59 L 670 308.154 C 670 309.691 671.258 310.949 672.795 310.949 L 692.359 310.949 L 692.359 308.154 L 672.795 308.154 L 672.795 288.59 Z " fill="rgb(255,255,255)"/><path d=" M 915.8 389.179 L 901.1 389.179 C 899.753 389.179 898.65 390.281 898.65 391.629 L 898.65 406.329 C 898.65 407.676 899.753 408.779 901.1 408.779 L 915.8 408.779 C 917.148 408.779 918.25 407.676 918.25 406.329 L 918.25 391.629 C 918.25 390.281 917.148 389.179 915.8 389.179 Z  M 913.35 395.304 L 909.675 395.304 L 909.675 402.041 C 909.675 403.732 908.303 405.104 906.613 405.104 C 904.922 405.104 903.55 403.732 903.55 402.041 C 903.55 400.351 904.922 398.979 906.613 398.979 C 907.311 398.979 907.935 399.211 908.45 399.603 L 908.45 392.854 L 913.35 392.854 L 913.35 395.304 Z  M 896.2 394.079 L 893.75 394.079 L 893.75 411.229 C 893.75 412.576 894.853 413.679 896.2 413.679 L 913.35 413.679 L 913.35 411.229 L 896.2 411.229 L 896.2 394.079 Z " fill="rgb(255,255,255)"/><path d=" M 750.2 113.272 L 739.4 113.272 C 738.41 113.272 737.6 114.082 737.6 115.072 L 737.6 125.872 C 737.6 126.862 738.41 127.672 739.4 127.672 L 750.2 127.672 C 751.19 127.672 752 126.862 752 125.872 L 752 115.072 C 752 114.082 751.19 113.272 750.2 113.272 Z  M 748.4 117.772 L 745.7 117.772 L 745.7 122.722 C 745.7 123.964 744.692 124.972 743.45 124.972 C 742.208 124.972 741.2 123.964 741.2 122.722 C 741.2 121.48 742.208 120.472 743.45 120.472 C 743.963 120.472 744.422 120.643 744.8 120.931 L 744.8 115.972 L 748.4 115.972 L 748.4 117.772 Z  M 735.8 116.872 L 734 116.872 L 734 129.472 C 734 130.462 734.81 131.272 735.8 131.272 L 748.4 131.272 L 748.4 129.472 L 735.8 129.472 L 735.8 116.872 Z " fill="rgb(255,255,255)"/><path d=" M 985.797 338.302 L 976.152 338.302 C 975.268 338.302 974.544 339.026 974.544 339.91 L 974.544 349.555 C 974.544 350.439 975.268 351.162 976.152 351.162 L 985.797 351.162 C 986.681 351.162 987.404 350.439 987.404 349.555 L 987.404 339.91 C 987.404 339.026 986.681 338.302 985.797 338.302 Z  M 984.189 342.321 L 981.778 342.321 L 981.778 346.742 C 981.778 347.851 980.878 348.751 979.769 348.751 C 978.659 348.751 977.759 347.851 977.759 346.742 C 977.759 345.633 978.659 344.732 979.769 344.732 C 980.227 344.732 980.637 344.885 980.974 345.142 L 980.974 340.714 L 984.189 340.714 L 984.189 342.321 Z  M 972.937 341.517 L 971.329 341.517 L 971.329 352.77 C 971.329 353.654 972.053 354.377 972.937 354.377 L 984.189 354.377 L 984.189 352.77 L 972.937 352.77 L 972.937 341.517 Z " fill="rgb(255,255,255)"/><circle vector-effect="non-scaling-stroke" cx="896" cy="272.46688324001497" r="7" fill="rgb(0,102,255)"/><rect x="805.864" y="375.421" width="12.273" height="12.273" transform="matrix(1,0,0,1,0,0)" fill="rgb(0,102,255)"/><g><path d=" M 971.123 201.386 C 971.019 201.161 970.889 200.946 970.707 200.763 L 957.957 188.013 C 957.774 187.831 957.559 187.701 957.334 187.597 C 957.27 187.567 957.202 187.55 957.134 187.527 C 956.956 187.467 956.773 187.429 956.584 187.418 C 956.539 187.414 956.499 187.391 956.454 187.391 L 941.579 187.391 C 939.235 187.391 937.329 189.297 937.329 191.641 L 937.329 225.641 C 937.329 227.985 939.235 229.891 941.579 229.891 L 967.079 229.891 C 969.423 229.891 971.329 227.985 971.329 225.641 L 971.329 202.266 C 971.329 202.221 971.306 202.181 971.302 202.134 C 971.291 201.945 971.255 201.762 971.193 201.584 C 971.172 201.516 971.153 201.45 971.123 201.386 Z  M 964.075 200.141 L 958.579 200.141 L 958.579 194.646 L 964.075 200.141 Z  M 941.579 225.641 L 941.579 191.641 L 954.329 191.641 L 954.329 202.266 C 954.329 203.441 955.279 204.391 956.454 204.391 L 967.079 204.391 L 967.084 225.641 L 941.579 225.641 Z " fill="rgb(255,255,255)"/><path d=" M 945.829 208.641 L 962.829 208.641 L 962.829 212.891 L 945.829 212.891 L 945.829 208.641 Z  M 945.829 217.141 L 962.829 217.141 L 962.829 221.391 L 945.829 221.391 L 945.829 217.141 Z  M 945.829 200.141 L 950.079 200.141 L 950.079 204.391 L 945.829 204.391 L 945.829 200.141 Z " fill="rgb(255,255,255)"/></g><g><path d=" M 834.868 436.577 C 834.79 436.409 834.694 436.25 834.558 436.114 L 825.082 426.637 C 824.946 426.501 824.786 426.405 824.619 426.327 C 824.571 426.305 824.521 426.293 824.47 426.275 C 824.338 426.231 824.202 426.203 824.061 426.195 C 824.028 426.192 823.998 426.174 823.965 426.174 L 812.909 426.174 C 811.167 426.174 809.75 427.591 809.75 429.333 L 809.75 454.604 C 809.75 456.347 811.167 457.763 812.909 457.763 L 831.862 457.763 C 833.604 457.763 835.021 456.347 835.021 454.604 L 835.021 437.23 C 835.021 437.197 835.004 437.167 835.001 437.132 C 834.993 436.992 834.966 436.856 834.92 436.723 C 834.904 436.673 834.89 436.624 834.868 436.577 Z  M 829.629 435.651 L 825.544 435.651 L 825.544 431.566 L 829.629 435.651 Z  M 812.909 454.604 L 812.909 429.333 L 822.385 429.333 L 822.385 437.23 C 822.385 438.104 823.091 438.81 823.965 438.81 L 831.862 438.81 L 831.865 454.604 L 812.909 454.604 Z " fill="rgb(255,255,255)"/><path d=" M 816.068 441.969 L 828.703 441.969 L 828.703 445.128 L 816.068 445.128 L 816.068 441.969 Z  M 816.068 448.287 L 828.703 448.287 L 828.703 451.446 L 816.068 451.446 L 816.068 448.287 Z  M 816.068 435.651 L 819.226 435.651 L 819.226 438.81 L 816.068 438.81 L 816.068 435.651 Z " fill="rgb(255,255,255)"/></g><g><path d=" M 682.482 148.402 C 682.405 148.235 682.309 148.075 682.173 147.94 L 672.696 138.463 C 672.56 138.327 672.401 138.231 672.233 138.153 C 672.186 138.131 672.135 138.118 672.085 138.101 C 671.952 138.057 671.816 138.028 671.676 138.021 C 671.643 138.017 671.613 138 671.579 138 L 660.523 138 C 658.781 138 657.364 139.417 657.364 141.159 L 657.364 166.43 C 657.364 168.172 658.781 169.589 660.523 169.589 L 679.477 169.589 C 681.219 169.589 682.636 168.172 682.636 166.43 L 682.636 149.056 C 682.636 149.023 682.618 148.993 682.615 148.958 C 682.607 148.818 682.58 148.682 682.535 148.549 C 682.519 148.499 682.505 148.45 682.482 148.402 Z  M 677.243 147.477 L 673.159 147.477 L 673.159 143.392 L 677.243 147.477 Z  M 660.523 166.43 L 660.523 141.159 L 670 141.159 L 670 149.056 C 670 149.93 670.706 150.636 671.579 150.636 L 679.477 150.636 L 679.48 166.43 L 660.523 166.43 Z " fill="rgb(255,255,255)"/><path d=" M 663.682 153.795 L 676.318 153.795 L 676.318 156.953 L 663.682 156.953 L 663.682 153.795 Z  M 663.682 160.112 L 676.318 160.112 L 676.318 163.271 L 663.682 163.271 L 663.682 160.112 Z  M 663.682 147.477 L 666.841 147.477 L 666.841 150.636 L 663.682 150.636 L 663.682 147.477 Z " fill="rgb(255,255,255)"/></g></g></svg>