<?xml version="1.0" encoding="UTF-8" standalone="no"?><!-- Generator: Gravit.io --><svg xmlns="http://www.w3.org/2000/svg" xmlns:xlink="http://www.w3.org/1999/xlink" style="isolation:isolate" viewBox="733.786 549.2 15.429 20.8" width="15.429pt" height="20.8pt"><mask id="_mask_YKU7p3FmyqglwoN38PBynDpwkJOuNzkU" x="-200%" y="-200%" width="400%" height="400%"><rect x="-200%" y="-200%" width="400%" height="400%" style="fill:white;"/><path d=" M 743.987 550.242 L 734.786 561.614 L 740.157 561.614 L 738.835 568.884 C 738.83 568.913 738.838 568.942 738.857 568.965 C 738.875 568.987 738.903 569 738.933 569 L 738.933 569 C 738.964 569 738.993 568.985 739.012 568.96 L 748.214 557.586 L 742.843 557.586 L 744.171 550.315 C 744.175 550.286 744.166 550.257 744.146 550.235 C 744.127 550.212 744.099 550.2 744.069 550.2 L 744.069 550.2 C 744.037 550.2 744.006 550.216 743.987 550.242 Z " fill="black" stroke="none"/></mask><path d=" M 743.987 550.242 L 734.786 561.614 L 740.157 561.614 L 738.835 568.884 C 738.83 568.913 738.838 568.942 738.857 568.965 C 738.875 568.987 738.903 569 738.933 569 L 738.933 569 C 738.964 569 738.993 568.985 739.012 568.96 L 748.214 557.586 L 742.843 557.586 L 744.171 550.315 C 744.175 550.286 744.166 550.257 744.146 550.235 C 744.127 550.212 744.099 550.2 744.069 550.2 L 744.069 550.2 C 744.037 550.2 744.006 550.216 743.987 550.242 Z " fill="none" mask="url(#_mask_YKU7p3FmyqglwoN38PBynDpwkJOuNzkU)" vector-effect="non-scaling-stroke" stroke-width="2" stroke="rgb(255,255,255)" stroke-linejoin="round" stroke-linecap="round" stroke-miterlimit="4"/><path d=" M 743.987 550.242 L 734.786 561.614 L 740.157 561.614 L 738.835 568.884 C 738.83 568.913 738.838 568.942 738.857 568.965 C 738.875 568.987 738.903 569 738.933 569 L 738.933 569 C 738.964 569 738.993 568.985 739.012 568.96 L 748.214 557.586 L 742.843 557.586 L 744.171 550.315 C 744.175 550.286 744.166 550.257 744.146 550.235 C 744.127 550.212 744.099 550.2 744.069 550.2 L 744.069 550.2 C 744.037 550.2 744.006 550.216 743.987 550.242 Z " fill="none"/></svg>