<?xml version="1.0" encoding="UTF-8" standalone="no"?><!-- Generator: Gravit.io --><svg xmlns="http://www.w3.org/2000/svg" xmlns:xlink="http://www.w3.org/1999/xlink" style="isolation:isolate" viewBox="103.25 477.25 27.5 28.5" width="27.5pt" height="28.5pt"><g><path d="M 117 478 L 117 478 C 117.828 478 118.5 478.681 118.5 479.52 L 118.5 503.48 C 118.5 504.319 117.828 505 117 505 L 117 505 C 116.172 505 115.5 504.319 115.5 503.48 L 115.5 479.52 C 115.5 478.681 116.172 478 117 478 Z" style="fill:none;stroke:#FFFFFF;stroke-width:1.5;stroke-linecap:square;stroke-miterlimit:2;"/><path d="M 111.243 483 L 111.257 483 C 112.081 483 112.75 483.669 112.75 484.493 L 112.75 498.507 C 112.75 499.331 112.081 500 111.257 500 L 111.243 500 C 110.419 500 109.75 499.331 109.75 498.507 L 109.75 484.493 C 109.75 483.669 110.419 483 111.243 483 Z" style="fill:none;stroke:#FFFFFF;stroke-width:1.5;stroke-linecap:square;stroke-miterlimit:2;"/><path d="M 105.5 488 L 105.5 488 C 106.328 488 107 488.672 107 489.5 L 107 493.5 C 107 494.328 106.328 495 105.5 495 L 105.5 495 C 104.672 495 104 494.328 104 493.5 L 104 489.5 C 104 488.672 104.672 488 105.5 488 Z" style="fill:none;stroke:#FFFFFF;stroke-width:1.5;stroke-linecap:square;stroke-miterlimit:2;"/><path d="M 122.757 483 L 122.743 483 C 121.919 483 121.25 483.669 121.25 484.493 L 121.25 498.507 C 121.25 499.331 121.919 500 122.743 500 L 122.757 500 C 123.581 500 124.25 499.331 124.25 498.507 L 124.25 484.493 C 124.25 483.669 123.581 483 122.757 483 Z" style="fill:none;stroke:#FFFFFF;stroke-width:1.5;stroke-linecap:square;stroke-miterlimit:2;"/><path d="M 128.5 488 L 128.5 488 C 127.672 488 127 488.672 127 489.5 L 127 493.5 C 127 494.328 127.672 495 128.5 495 L 128.5 495 C 129.328 495 130 494.328 130 493.5 L 130 489.5 C 130 488.672 129.328 488 128.5 488 Z" style="fill:none;stroke:#FFFFFF;stroke-width:1.5;stroke-linecap:square;stroke-miterlimit:2;"/></g></svg>